<svg width="58" height="58" viewBox="0 0 58 58" fill="none" xmlns="http://www.w3.org/2000/svg">
<rect width="58" height="58" rx="18" fill="#C3FFE2"/>
<path d="M37.875 19.125H34.75V17.5625C34.75 16.6986 34.0501 16 33.1875 16C32.3249 16 31.625 16.6986 31.625 17.5625V19.125H25.375V17.5625C25.375 16.6986 24.6751 16 23.8125 16C22.9499 16 22.25 16.6986 22.25 17.5625V19.125H19.125C17.3998 19.125 16 20.5248 16 22.25V37.875C16 39.6002 17.3998 41 19.125 41H37.875C39.6002 41 41 39.6002 41 37.875V22.25C41 20.5236 39.6002 19.125 37.875 19.125ZM37.875 37.875H19.125V24.5931H37.875V37.875Z" fill="#41B78D"/>
</svg>
