<svg width="58" height="58" viewBox="0 0 58 58" fill="none" xmlns="http://www.w3.org/2000/svg">
<rect width="58" height="58" rx="18" fill="#FFF3B7"/>
<path d="M29 16C23.489 16 19 20.489 19 26C19 28.8331 20.4097 31.7555 22.2383 34.4902C24.0669 37.225 26.3541 39.7682 28.293 41.707C28.6835 42.0974 29.3165 42.0974 29.707 41.707C31.6901 39.724 33.977 37.1796 35.7949 34.4551C37.6129 31.7306 39 28.827 39 26C39 20.489 34.511 16 29 16ZM29 22C31.1973 22 33 23.8027 33 26C33 28.1973 31.1973 30 29 30C26.8027 30 25 28.1973 25 26C25 23.8027 26.8027 22 29 22Z" fill="#C0A30C"/>
</svg>
