<svg width="24" height="24" viewBox="0 0 24 24" fill="none" xmlns="http://www.w3.org/2000/svg">
<path d="M12 24C18.6274 24 24 18.6274 24 12C24 5.37258 18.6274 0 12 0C5.37258 0 0 5.37258 0 12C0 18.6274 5.37258 24 12 24Z" fill="#FFB7B7"/>
<path d="M17.7047 10.0213L12.6661 5.50066C12.4916 5.34841 12.2356 5.34841 12.061 5.50066L7.02247 10.0213C6.70829 10.3024 6.90611 10.8177 7.32502 10.8177H7.93011V16.041C7.93011 16.2986 8.13956 16.4977 8.38393 16.4977H16.3432C16.5992 16.4977 16.797 16.2869 16.797 16.041V10.8177H17.4021C17.821 10.8177 18.0188 10.3024 17.7047 10.0213Z" fill="#C0A30C"/>
</svg>
